<?xml version="1.0" encoding="utf-8"?>
<!-- Generator: Adobe Illustrator 16.0.0, SVG Export Plug-In . SVG Version: 6.00 Build 0)  -->
<!DOCTYPE svg PUBLIC "-//W3C//DTD SVG 1.1//EN" "http://www.w3.org/Graphics/SVG/1.1/DTD/svg11.dtd">
<svg version="1.1" id="Layer_1" xmlns="http://www.w3.org/2000/svg" xmlns:xlink="http://www.w3.org/1999/xlink" x="0px" y="0px"
	 width="133px" height="133px" viewBox="0 0 133 133" style="enable-background:new 0 0 133 133;" xml:space="preserve">
<style type="text/css">
<![CDATA[
	.st0{fill:#E62E4D;}
	.st1{fill:#4FC4D6;}
	.st2{fill:#56455B;}
	.st3{fill:#96C13D;}
	.st4{fill:#FCE100;}
]]>
</style>
<path class="st0" d="M65.4,88.2c0-1.2,0.9-2.1,2.1-2.1c1.2,0,2.1,0.9,2.1,2.1c0,1.2-0.9,2.1-2.1,2.1C66.3,90.3,65.4,89.4,65.4,88.2"
	/>
<path class="st0" d="M84.5,78.3c0.3-0.3,0.3-0.6,0.1-0.9c-0.5-0.5-2.9-2.3-5.3-2.3c-2.4,0-7.4,1.9-7.4,7.7c0,5.8,4.7,7.4,7.4,7.4
	c2.7,0,5.1-1.9,5.3-2.1c0.3-0.3,0.4-0.5,0-0.9c-0.2-0.2-1.8-2.2-2-2.3c-0.3-0.3-0.6-0.3-0.9,0c-0.3,0.3-1,1.2-2.5,1.2
	c-1.6,0-3.3-0.8-3.3-3.3c0-2.5,1.6-3.6,3.3-3.6c1.4,0,2.1,0.8,2.4,1.1c0.4,0.4,0.6,0.4,1,0C82.9,80,84.5,78.3,84.5,78.3"/>
<line class="st0" x1="74.4" y1="51.8" x2="73.8" y2="51.8"/>
<line class="st0" x1="74.5" y1="48" x2="75.1" y2="48"/>
<path class="st0" d="M101.2,55.5c-0.2-3.8-2.5-7.7-7.7-7.7c-9.8,0-9.9,14.6,0,14.6c2.2,0,3.4-1.2,4.1-1.2c0.6,0,0.5,0.9,1,0.9h2
	c0.6,0,0.9-0.1,0.9-0.6C101.5,60.8,101.4,58.9,101.2,55.5 M93.5,58.7c-4.7,0-4.7-6.9,0-6.9C98.1,51.8,98.1,58.7,93.5,58.7"/>
<path class="st0" d="M64.2,55.5c-0.2-3.8-2.5-7.7-7.7-7.7c-9.8,0-9.9,14.6,0,14.6c2.2,0,3.4-1.2,4.1-1.2c0.6,0,0.5,0.9,1,0.9h2
	c0.6,0,0.9-0.1,0.9-0.6C64.5,60.8,64.4,58.9,64.2,55.5 M56.5,58.7c-4.7,0-4.7-6.9,0-6.9C61.1,51.8,61.1,58.7,56.5,58.7"/>
<path class="st0" d="M82.3,48.5h-4c-1-0.5-2.1-0.8-3.5-0.8c-9.9,0-10,15.1-0.1,15.1c1.1,0,2.2-0.1,3-0.5c0,0,0.7,4-3.1,4
	c-2.1,0-3.2-1.9-3.5-2.1c-0.2-0.2-0.5-0.2-0.8,0.1c-0.3,0.3-1.3,1.3-2,2c-0.3,0.3-0.4,0.6-0.1,1c0.2,0.4,2.4,3.3,6.3,3.3
	c7.6,0,7.6-7.6,7.6-7.6s0.2-6.9,0.2-8.5c0-1.6,0.5-4.6,0.5-5.1C83,48.7,82.7,48.5,82.3,48.5 M74.8,58.7c-4.7,0-4.7-6.9,0.1-6.9
	C79.4,51.8,79.4,58.7,74.8,58.7"/>
<path class="st0" d="M39.3,47.7c-2.6,0-3.8,1.3-4.5,1.3c-0.7,0-0.4-0.6-1.2-0.6h-2c-0.3,0-0.6,0.1-0.6,0.6c0,1.1,0.5,3.7,0.5,6.2
	v11.7c0,0.6,0.2,0.7,0.5,0.7H35c0.3,0,0.6-0.1,0.6-0.7V62c0,0,1.2,0.8,3.8,0.8c3.1,0,7.2-2.1,7.2-7.5C46.6,49.8,42.4,47.7,39.3,47.7
	 M39.4,58.7c-4.7,0-4.7-6.9,0.1-6.9C44,51.8,44,58.7,39.4,58.7"/>
<path class="st0" d="M39.3,75.1c-2.6,0-3.8,1.3-4.5,1.3c-0.7,0-0.4-0.6-1.2-0.6h-2c-0.3,0-0.6,0.1-0.6,0.6c0,1.1,0.5,3.7,0.5,6.2
	v11.7c0,0.6,0.2,0.7,0.5,0.7H35c0.3,0,0.6-0.1,0.6-0.7v-4.9c0,0,1.2,0.8,3.8,0.8c3.1,0,7.2-2.1,7.2-7.5
	C46.6,77.3,42.4,75.1,39.3,75.1 M39.4,86.1c-4.7,0-4.7-6.9,0.1-6.9C44,79.2,44,86.1,39.4,86.1"/>
<path class="st0" d="M56.1,75.1c-10.3,0-10.4,15.1-0.1,15.1C66,90.1,66.1,75.1,56.1,75.1 M55.9,86c-4.7,0-4.7-6.9,0.1-6.9
	C60.6,79.1,60.5,86,55.9,86"/>
<path class="st0" d="M93.9,75.1c-10.3,0-10.4,15.1-0.1,15.1C103.9,90.1,104,75.1,93.9,75.1 M93.8,86c-4.7,0-4.7-6.9,0.1-6.9
	C98.5,79.1,98.4,86,93.8,86"/>
<path class="st3" d="M23.5,23.9l-4.1-4.1C7.4,31.9,0,48.5,0,66.8h5.7C5.7,50,12.5,34.9,23.5,23.9"/>
<path class="st1" d="M19.4,19.9l4.1,4.1C34.5,13,49.6,6.2,66.3,6.2c0,0,0,0,0,0V0.5c0,0,0,0,0,0C48,0.5,31.4,7.9,19.4,19.9"/>
<path class="st4" d="M19.4,113.6l4.1-4.1c-11-11-17.7-26.1-17.7-42.8H0C0,85.1,7.4,101.6,19.4,113.6"/>
<path class="st2" d="M66.3,133v-5.7c0,0,0,0,0,0c-16.7,0-31.9-6.8-42.8-17.7l-4.1,4.1C31.4,125.6,48,133,66.3,133
	C66.3,133,66.3,133,66.3,133"/>
<path class="st3" d="M109.1,109.6l4.1,4.1c12-12,19.4-28.6,19.4-46.9h-5.7C126.9,83.5,120.1,98.7,109.1,109.6"/>
<path class="st1" d="M113.2,113.7l-4.1-4c-11,10.9-26.1,17.7-42.8,17.7c0,0,0,0,0,0v5.7c0,0,0,0,0,0
	C84.6,133,101.2,125.6,113.2,113.7"/>
<path class="st4" d="M113.2,19.9l-4.1,4.1c11,11,17.7,26.1,17.7,42.8h5.7C132.6,48.5,125.2,31.9,113.2,19.9"/>
<path class="st2" d="M66.1,0.5v5.7c0,0,0.2,0,0.2,0c16.7,0,31.9,6.8,42.8,17.7l4.1-4.1c-12-12-28.6-19.4-46.9-19.4
	C66.3,0.5,66.2,0.5,66.1,0.5"/>
</svg>
