<?xml version="1.0" encoding="utf-8"?>
<!-- Generator: Adobe Illustrator 16.0.0, SVG Export Plug-In . SVG Version: 6.00 Build 0)  -->
<!DOCTYPE svg PUBLIC "-//W3C//DTD SVG 1.1//EN" "http://www.w3.org/Graphics/SVG/1.1/DTD/svg11.dtd">
<svg version="1.1" id="Layer_1" xmlns="http://www.w3.org/2000/svg" xmlns:xlink="http://www.w3.org/1999/xlink" x="0px" y="0px"
	 width="133px" height="133px" viewBox="0 0 133 133" enable-background="new 0 0 133 133" xml:space="preserve">
<path fill="#E62E4D" d="M65.405,88.2c0-1.164,0.944-2.108,2.109-2.108c1.164,0,2.109,0.944,2.109,2.108
	c0,1.165-0.945,2.109-2.109,2.109C66.349,90.31,65.405,89.365,65.405,88.2"/>
<path fill="#E62E4D" d="M84.499,78.259c0.299-0.299,0.331-0.645,0.053-0.922c-0.458-0.459-2.909-2.294-5.338-2.294
	c-2.426,0-7.442,1.851-7.442,7.701c0,5.849,4.738,7.379,7.442,7.379c2.707,0,5.094-1.88,5.313-2.098c0.27-0.269,0.438-0.479,0-0.915
	c-0.225-0.225-1.837-2.185-1.95-2.299c-0.268-0.268-0.557-0.298-0.883,0.02c-0.329,0.318-0.977,1.208-2.479,1.208
	c-1.629,0-3.278-0.763-3.278-3.295c0-2.534,1.566-3.603,3.278-3.603c1.444,0,2.06,0.762,2.425,1.128
	c0.364,0.365,0.636,0.358,0.969,0.026C82.938,79.964,84.499,78.259,84.499,78.259"/>
<line fill="#E62E4D" x1="74.434" y1="51.782" x2="73.837" y2="51.782"/>
<line fill="#E62E4D" x1="74.474" y1="48.042" x2="75.071" y2="48.042"/>
<path fill="#E62E4D" d="M101.179,55.546c-0.223-3.768-2.522-7.652-7.655-7.652c-9.782,0-9.862,14.563,0,14.563
	c2.154,0,3.438-1.22,4.087-1.22c0.563,0,0.479,0.901,0.981,0.901h2.043c0.64,0,0.889-0.135,0.889-0.604
	C101.523,60.818,101.377,58.928,101.179,55.546 M93.523,58.664c-4.723,0-4.723-6.897,0-6.897
	C98.139,51.766,98.139,58.664,93.523,58.664"/>
<path fill="#E62E4D" d="M64.174,55.546c-0.222-3.768-2.522-7.652-7.656-7.652c-9.782,0-9.862,14.563,0,14.563
	c2.155,0,3.438-1.22,4.087-1.22c0.564,0,0.479,0.901,0.982,0.901h2.043c0.639,0,0.888-0.135,0.888-0.604
	C64.519,60.818,64.372,58.928,64.174,55.546 M56.518,58.664c-4.723,0-4.723-6.897,0-6.897
	C61.133,51.766,61.133,58.664,56.518,58.664"/>
<path fill="#E62E4D" d="M82.328,48.495h-3.955c-0.975-0.515-2.136-0.813-3.486-0.813c-9.889,0-9.955,15.066-0.116,15.066
	c1.134,0,2.179-0.123,3.049-0.478c0,0,0.663,4.033-3.077,4.033c-2.149,0-3.196-1.871-3.475-2.149
	c-0.212-0.212-0.504-0.239-0.796,0.053c-0.346,0.344-1.298,1.296-1.986,1.986c-0.343,0.341-0.367,0.569-0.131,0.979
	c0.226,0.387,2.409,3.269,6.334,3.269c7.56,0,7.613-7.614,7.613-7.614s0.16-6.883,0.16-8.515c0-1.631,0.504-4.623,0.504-5.093
	C82.966,48.689,82.74,48.495,82.328,48.495 M74.754,58.664c-4.721,0-4.668-6.897,0.054-6.897
	C79.423,51.766,79.371,58.664,74.754,58.664"/>
<path fill="#E62E4D" d="M39.315,47.655c-2.639,0-3.826,1.313-4.516,1.313c-0.736,0-0.437-0.597-1.213-0.597h-2
	c-0.338,0-0.627,0.123-0.627,0.6c0,1.095,0.464,3.711,0.464,6.217v11.698c0,0.578,0.206,0.704,0.471,0.704h3.136
	c0.319,0,0.571-0.133,0.571-0.704v-4.908c0,0,1.167,0.823,3.807,0.823c3.117,0,7.215-2.148,7.215-7.508
	C46.624,49.844,42.432,47.655,39.315,47.655 M39.362,58.664c-4.722,0-4.668-6.897,0.053-6.897
	C44.03,51.766,43.978,58.664,39.362,58.664"/>
<path fill="#E62E4D" d="M39.315,75.137c-2.639,0-3.826,1.313-4.516,1.313c-0.736,0-0.437-0.598-1.213-0.598h-2
	c-0.338,0-0.627,0.123-0.627,0.601c0,1.095,0.464,3.71,0.464,6.218v11.698c0,0.575,0.206,0.702,0.471,0.702h3.136
	c0.319,0,0.571-0.133,0.571-0.702v-4.908c0,0,1.167,0.822,3.807,0.822c3.117,0,7.215-2.148,7.215-7.508
	C46.624,77.325,42.432,75.137,39.315,75.137 M39.362,86.146c-4.722,0-4.668-6.897,0.053-6.897
	C44.03,79.248,43.978,86.146,39.362,86.146"/>
<path fill="#E62E4D" d="M56.065,75.057c-10.315,0-10.431,15.068-0.116,15.068C66.033,90.125,66.15,75.057,56.065,75.057
	 M55.934,86.039c-4.722,0-4.668-6.897,0.053-6.897C60.602,79.142,60.549,86.039,55.934,86.039"/>
<path fill="#E62E4D" d="M93.945,75.057c-10.314,0-10.43,15.068-0.114,15.068C103.914,90.125,104.03,75.057,93.945,75.057
	 M93.814,86.039c-4.722,0-4.669-6.897,0.054-6.897C98.483,79.142,98.431,86.039,93.814,86.039"/>
<path fill="#96C13D" d="M23.499,23.939l-4.052-4.052C7.433,31.882,0,48.463,0,66.781h5.73C5.73,50.046,12.522,34.897,23.499,23.939"
	/>
<path fill="#4FC4D6" d="M19.447,19.887l4.052,4.051C34.451,13.007,49.567,6.246,66.265,6.246c0.016,0,0.033,0.001,0.049,0.001V0.518
	c-0.016,0-0.033-0.001-0.049-0.001C47.987,0.517,31.435,7.921,19.447,19.887"/>
<path fill="#FCE100" d="M19.414,113.641l4.052-4.052C12.507,98.634,5.73,83.5,5.73,66.78H0C0,85.081,7.42,101.649,19.414,113.641"/>
<path fill="#56455B" d="M66.313,133.043v-5.729c-0.017,0-0.032,0-0.049,0c-16.717,0-31.851-6.775-42.804-17.73l-4.052,4.052
	c11.991,11.992,28.558,19.409,46.856,19.409C66.281,133.045,66.297,133.043,66.313,133.043"/>
<path fill="#96C13D" d="M109.109,109.622l4.051,4.052c12.014-11.995,19.446-28.575,19.446-46.894h-5.73
	C126.876,83.516,120.085,98.664,109.109,109.622"/>
<path fill="#4FC4D6" d="M113.177,113.657l-4.067-4.035c-10.952,10.932-26.07,17.692-42.767,17.692c-0.017,0-0.032-0.002-0.049-0.002
	v5.73c0.017,0,0.032,0,0.049,0C84.62,133.043,101.188,125.624,113.177,113.657"/>
<path fill="#FCE100" d="M113.193,19.92l-4.051,4.052c10.956,10.955,17.734,26.089,17.734,42.809h5.729
	C132.606,48.48,125.188,31.913,113.193,19.92"/>
<path fill="#56455B" d="M66.148,0.518v5.729c0.017,0,0.178,0,0.195,0c16.716,0,31.851,6.775,42.804,17.73l4.052-4.052
	C101.207,7.934,84.641,0.517,66.343,0.517C66.326,0.517,66.165,0.518,66.148,0.518"/>
</svg>
